<?xml version="1.0" encoding="utf-8"?>
<!-- Generator: Adobe Illustrator 26.3.1, SVG Export Plug-In . SVG Version: 6.00 Build 0)  -->
<svg version="1.1" xmlns="http://www.w3.org/2000/svg" xmlns:xlink="http://www.w3.org/1999/xlink" x="0px" y="0px"
	 viewBox="0 0 83.82 22.6" style="enable-background:new 0 0 83.82 22.6;" xml:space="preserve">
<style type="text/css">
	.st0{enable-background:new    ;}
	.st1{fill-rule:evenodd;clip-rule:evenodd;fill:#3875EB;}
	.st2{fill-rule:evenodd;clip-rule:evenodd;fill:#333333;}
</style>
<g id="Rectangle_1_00000146459961708607736700000016881249804855174785_" class="st0">
</g>
<g id="MM_00000124878308375422528480000001048958193553612965_">
	<g id="Shape_2_00000027584553199976211230000014922678093740643486_">
		<g>
			<path class="st1" d="M21.99,12.8c0,0.35,0.28,0.63,0.63,0.63h0c0.34,0,0.63-0.28,0.63-0.63V7.43c0-0.78-0.49-1.29-1.22-1.29H19
				c-0.21,0-0.39,0.1-0.51,0.26c-0.03-0.01-0.07-0.01-0.1-0.01c-0.03,0-0.06,0-0.09,0.01C18.19,6.24,18,6.14,17.8,6.14h-3.46
				c-0.18,0-0.34,0.08-0.45,0.2c-0.12,0.11-0.2,0.28-0.2,0.46v3.1c0,0.35,0.28,0.63,0.63,0.63s0.63-0.28,0.63-0.63v-2.5h2.83v3.49
				c0,0.35,0.28,0.63,0.63,0.63s0.63-0.28,0.63-0.63V7.39h2.97V12.8z M17.34,15.17h-4.35c-0.8,0-1.46,0.66-1.46,1.47v4.41
				c0,0.81,0.66,1.47,1.46,1.47h4.35c0.8,0,1.46-0.66,1.46-1.47v-4.41C18.8,15.83,18.14,15.17,17.34,15.17z M17.6,21.31h-4.87v-4.9
				h4.87V21.31z M26.28,15.24c-0.15-0.15-0.38-0.15-0.53,0l-0.63,0.63c-0.08,0.08-0.11,0.18-0.11,0.28C25,16.2,25,16.25,25,16.29
				v4.95h-2.23v-4.06c0-0.33-0.15-0.66-0.54-0.66h-1.38c-0.29,0-0.53,0.24-0.53,0.54v0c0,0.3,0.24,0.54,0.53,0.54h0.67v4.06
				c0,0.1,0.02,0.19,0.06,0.27c0.06,0.22,0.27,0.39,0.51,0.39h3.49c0.28,0,0.51-0.22,0.53-0.5c0.08-0.1,0.12-0.23,0.12-0.37v-4.92
				l0.39-0.39c0.15-0.15,0.15-0.38,0-0.53L26.28,15.24z M66.03,15.31h-6.06c-0.23,0-0.42,0.14-0.51,0.34
				c-0.06,0.1-0.1,0.22-0.1,0.34v2.8c0,0.35,0.28,0.63,0.62,0.63c0.34,0,0.63-0.28,0.63-0.63v-2.38h4.84v5.46
				c0,0.35,0.28,0.63,0.63,0.63c0.34,0,0.62-0.28,0.62-0.63v-5.89C66.71,15.65,66.37,15.31,66.03,15.31z M74.2,21.39h-4.39v-4.93
				h3.17c0.29,0,0.53-0.24,0.53-0.54v0c0-0.3-0.24-0.54-0.53-0.54h-3.17v-2.57c0-0.31-0.25-0.56-0.56-0.56s-0.56,0.25-0.56,0.56
				v8.67c0,0.54,0.38,0.99,1.05,0.99h4.45c0.29,0,0.53-0.24,0.53-0.54C74.73,21.63,74.49,21.39,74.2,21.39z M35.93,20.82
				c-0.14-0.15-0.38-0.15-0.53,0l-0.57,0.58h-4.57l0-0.19c0.02-0.06,0.03-0.13,0.03-0.19v-1.03l4.74,0c0.67,0,1.2-0.38,1.2-1.07
				v-2.41c0-0.7-0.55-1.27-1.22-1.27h-4.99c-0.11,0-0.21,0.02-0.3,0.1l-0.66,0.66c-0.14,0.14-0.14,0.37,0,0.5l0.34,0.34
				c0.14,0.14,0.36,0.14,0.5,0l0.45-0.45h4.3c0.19,0,0.35,0.16,0.35,0.36v1.75c0,0.2-0.16,0.36-0.35,0.36h-0.25
				c-0.09-0.02-0.19-0.03-0.29-0.03h-3.65c-0.07,0-0.13,0-0.19,0.01v-1.09c0-0.32-0.26-0.59-0.58-0.59s-0.58,0.26-0.58,0.59v3.27
				c0,0.02,0,0.05,0,0.07c0.02,0.76,0.62,1.37,1.36,1.37h4.87c0.03,0,0.05,0,0.08,0h0.08v-0.02c0.05-0.02,0.11-0.05,0.15-0.09
				l0.63-0.63c0.15-0.15,0.15-0.38,0-0.53L35.93,20.82z M46.66,15.31h-3.02c-0.21,0-0.39,0.1-0.51,0.26
				c-0.03-0.01-0.07-0.01-0.1-0.01h0c-0.03,0-0.06,0-0.09,0.01c-0.11-0.16-0.3-0.26-0.51-0.26h-3.46c-0.18,0-0.34,0.08-0.45,0.2
				c-0.12,0.11-0.2,0.28-0.2,0.46v3.1c0,0.35,0.28,0.63,0.62,0.63c0.34,0,0.63-0.28,0.63-0.63v-2.5h2.83v3.49
				c0,0.35,0.28,0.63,0.62,0.63h0c0.34,0,0.62-0.28,0.62-0.63v-3.49h2.97v5.4c0,0.35,0.28,0.63,0.62,0.63
				c0.34,0,0.63-0.28,0.63-0.63V16.6C47.88,15.83,47.4,15.31,46.66,15.31z M56.98,20.82c-0.14-0.15-0.38-0.15-0.53,0l-0.57,0.58
				h-4.57l0-0.19c0.02-0.06,0.03-0.13,0.03-0.19v-1.03l4.74,0c0.67,0,1.2-0.38,1.2-1.07v-2.41c0-0.7-0.55-1.27-1.22-1.27h-4.99
				c-0.11,0-0.21,0.02-0.3,0.1l-0.66,0.66c-0.14,0.14-0.14,0.37,0,0.5l0.34,0.34c0.14,0.14,0.36,0.14,0.5,0l0.45-0.45h4.3
				c0.19,0,0.35,0.16,0.35,0.36v1.75c0,0.2-0.16,0.36-0.35,0.36h-0.25c-0.09-0.02-0.19-0.03-0.29-0.03h-3.65
				c-0.06,0-0.13,0-0.19,0.01v-1.09c0-0.32-0.26-0.59-0.59-0.59s-0.58,0.26-0.58,0.59v3.27c0,0.02,0,0.05,0,0.07
				c0.02,0.76,0.62,1.37,1.36,1.37h4.87c0.03,0,0.05,0,0.08,0h0.08v-0.02c0.05-0.02,0.1-0.05,0.15-0.09l0.63-0.63
				c0.14-0.15,0.14-0.38,0-0.53L56.98,20.82z M82.08,16.4c0.32,0.17,0.67,0.41,0.87,0.53c0.24,0.14,0.56,0.06,0.69-0.19l0.11-0.2
				c0.14-0.24,0.06-0.56-0.19-0.7c-0.48-0.28-0.62-0.49-1.21-0.49h-4.55c-0.77,0-1.4,0.63-1.4,1.4v0.78c0,0.77,0.63,1.4,1.4,1.4
				h3.75c0.1,0,0.2-0.01,0.3-0.03h0.25c0.2,0,0.36,0.16,0.36,0.36V21c0,0.2-0.16,0.36-0.36,0.36h-4c-0.02-0.01-0.04-0.03-0.06-0.04
				l-0.78-0.46c-0.25-0.15-0.58-0.06-0.72,0.19l-0.12,0.2c-0.15,0.25-0.06,0.58,0.19,0.73c0.29,0.17,0.8,0.5,1.18,0.51h4.67
				c0.69,0,1.25-0.57,1.25-1.26v-2.38c0-0.69-0.56-1.26-1.25-1.26l-4.75,0l0.01-1.21H82.08z"/>
		</g>
	</g>
	<g id="Shape_2_copy_00000070110594328131165010000014910758833917525142_">
		<g>
			<path class="st2" d="M72.21,12.11h-1.89c-0.49-0.05-0.59-0.33-0.59-0.56V1.32c0-0.56-0.46-1.01-0.71-1.08l-0.86-0.23
				c-0.2-0.05-0.4,0.07-0.46,0.27l-0.13,0.49c-0.05,0.2,0.07,0.41,0.26,0.46l0.65,0.18v9.65c0,0.88,0.08,2.06,1.26,2.06h2.47
				c0.27,0,0.5-0.23,0.5-0.5v0C72.71,12.33,72.48,12.11,72.21,12.11z M46.49,12.09h-1.8V7.25c0-0.17-0.07-0.33-0.18-0.44
				c-0.02-0.03-0.03-0.05-0.06-0.08l-0.29-0.29c0.31-0.04,0.55-0.3,0.55-0.62V4.16c0-0.35-0.28-0.63-0.62-0.63s-0.63,0.28-0.63,0.63
				v1.65c0,0.06,0.01,0.12,0.03,0.18c-0.07,0.01-0.14,0.05-0.19,0.1l-0.36,0.36c-0.14,0.15-0.14,0.38,0,0.53l0.51,0.51v4.63
				c0,0.64,0.31,1.11,0.82,1.11h2.22c0.31,0,0.57-0.26,0.57-0.57C47.06,12.35,46.8,12.09,46.49,12.09z M30.64,5.98
				c-0.34,0-0.62,0.28-0.62,0.63v5.59h-3.48V6.61c0-0.35-0.28-0.63-0.63-0.63h0c-0.34,0-0.63,0.28-0.63,0.63v5.71
				c0,0.08,0.01,0.15,0.04,0.22c0.08,0.44,0.47,0.78,0.94,0.78h3.99c0.42,0,0.77-0.27,0.9-0.65c0.07-0.1,0.11-0.22,0.11-0.35V6.61
				C31.26,6.26,30.98,5.98,30.64,5.98z M54.85,7.25l0.58,0.59c0.16,0.17,0.43,0.16,0.6,0l0.29-0.29c0.16-0.17,0.16-0.44,0-0.6
				L55.6,6.23C55.47,6.1,55.35,6.1,55.19,6.1h-5.17c-0.53,0-0.95,0.43-0.95,0.96v5.24c0,0.44,0.3,0.81,0.7,0.93
				c0.08,0.03,0.16,0.05,0.25,0.05h5.69c0.34,0,0.62-0.28,0.62-0.63c0-0.35-0.28-0.63-0.62-0.63h-5.52V7.25H54.85z M40.6,6.6
				c-0.48-0.28-0.62-0.49-1.21-0.49h-4.55c-0.77,0-1.4,0.63-1.4,1.4V8.3c0,0.77,0.63,1.4,1.4,1.4h3.75c0.1,0,0.2-0.01,0.3-0.03h0.25
				c0.2,0,0.36,0.16,0.36,0.36v1.73c0,0.2-0.16,0.36-0.36,0.36h-4c-0.02-0.01-0.04-0.03-0.06-0.04l-0.79-0.46
				c-0.25-0.15-0.58-0.06-0.72,0.19l-0.12,0.2c-0.15,0.25-0.06,0.58,0.19,0.73c0.3,0.17,0.8,0.5,1.18,0.51h4.67
				c0.69,0,1.25-0.57,1.25-1.26V9.62c0-0.69-0.56-1.26-1.25-1.26l-4.75,0l0.01-1.21h4.35c0.32,0.17,0.67,0.41,0.87,0.53
				c0.24,0.14,0.56,0.06,0.7-0.19l0.11-0.2C40.93,7.06,40.84,6.74,40.6,6.6z M65.09,12.16h-5.52V8.98h4.84v1.88
				c0,0.35,0.28,0.63,0.63,0.63c0.34,0,0.62-0.28,0.62-0.63V6.93c0-0.41-0.43-0.93-1.06-0.95h-5.58c-0.34,0-0.62,0.28-0.62,0.63v0
				c0,0.35,0.28,0.63,0.62,0.63h5.38v0.59h-5.01c-0.53,0-0.96,0.43-0.96,0.96v3.65c0,0.44,0.3,0.81,0.7,0.93
				c0.08,0.03,0.16,0.05,0.25,0.05h5.69c0.34,0,0.63-0.28,0.63-0.63C65.71,12.44,65.43,12.16,65.09,12.16z M8.33,15.31H5.31
				c-0.21,0-0.39,0.1-0.51,0.26c-0.03-0.01-0.07-0.01-0.1-0.01c-0.03,0-0.06,0-0.09,0.01c-0.11-0.16-0.3-0.26-0.51-0.26H0.65
				c-0.18,0-0.34,0.08-0.45,0.2C0.08,15.63,0,15.79,0,15.97v3.1c0,0.35,0.28,0.63,0.63,0.63s0.63-0.28,0.63-0.63v-2.5h2.83v3.49
				c0,0.35,0.28,0.63,0.63,0.63c0.34,0,0.63-0.28,0.63-0.63v-3.49H8.3v5.4c0,0.35,0.28,0.63,0.63,0.63h0c0.34,0,0.63-0.28,0.63-0.63
				V16.6C9.55,15.83,9.06,15.31,8.33,15.31z"/>
		</g>
	</g>
</g>
</svg>
